# xmcd CD database file
#
# Track frame offsets:
#	150
#	18055
#	40340
#	46610
#	67522
#	83935
#	96735
#	111322
#	125877
#	142317
#	160217
#	190250
#
# Disc length: 2705 seconds
#
# Revision: 1
# Processed by: cddbd v1.4PL0 Copyright (c) Steve Scherf et al.
# Submitted via: CDex 1.51
#
DISCID=a50a8f0c
DTITLE=Charles Wilson - Renaissance Man
DYEAR=1999
DGENRE=New Age
TTITLE0=Watermoon
TTITLE1=Spring Sunrise
TTITLE2=Sunshower
TTITLE3=Transcendent Journey of the Gray Wolf
TTITLE4=Joni-K's Room
TTITLE5=I am the full moon, a believer
TTITLE6=Children of the Sea
TTITLE7=Breathless
TTITLE8=Thinking of you
TTITLE9=Ride
TTITLE10=Renaissance Man
TTITLE11=I am the full moon a believer instr
EXTD=YEAR: 1999
EXTT0=
EXTT1=
EXTT2=
EXTT3=
EXTT4=
EXTT5=
EXTT6=
EXTT7=
EXTT8=
EXTT9=
EXTT10=
EXTT11=
PLAYORDER=
